<?xml version="1.0" standalone="no"?><!DOCTYPE svg PUBLIC "-//W3C//DTD SVG 1.1//EN" "http://www.w3.org/Graphics/SVG/1.1/DTD/svg11.dtd"><svg t="1656055394847" class="icon" viewBox="0 0 1024 1024" version="1.1" xmlns="http://www.w3.org/2000/svg" p-id="1360" xmlns:xlink="http://www.w3.org/1999/xlink" width="200" height="200"><defs><style type="text/css"></style></defs><path d="M420.3008 927.3344H171.6224a17.6128 17.6128 0 0 1-17.408-19.9168L228.5568 348.672a17.6128 17.6128 0 0 1 17.4592-15.36h99.9424a17.5104 17.5104 0 0 1 17.408 15.36L437.76 907.4176a17.6128 17.6128 0 0 1-17.4592 19.9168z m-228.5568-35.2256h208.4864L330.5472 368.64h-69.12z" fill="#4D4D4D" p-id="1361"></path><path d="M954.2656 927.8976H71.2704a17.6128 17.6128 0 1 1 0-35.1744h882.9952a17.6128 17.6128 0 0 1 0 35.1744zM353.28 489.3696H295.3728a17.6128 17.6128 0 0 1 0-35.1744H353.28a17.6128 17.6128 0 0 1 0 35.1744zM549.4272 713.6768a17.6128 17.6128 0 0 1-17.6128-17.5616v-64.9728l-73.3696 42.3424a17.6128 17.6128 0 1 1-17.6128-30.464l99.7888-57.6a17.6128 17.6128 0 0 1 26.368 15.36V696.32a17.6128 17.6128 0 0 1-17.5616 17.3568z" fill="#4D4D4D" p-id="1362"></path><path d="M550.5024 714.6496a17.5616 17.5616 0 0 1-8.8064-32.8192l166.9632-96.4096a17.6128 17.6128 0 0 1 26.4192 15.36v94.7712a17.6128 17.6128 0 1 1-35.2256 0v-64.4096l-140.544 81.152a17.6128 17.6128 0 0 1-8.8064 2.3552z" fill="#4D4D4D" p-id="1363"></path><path d="M885.76 913.8688a17.6128 17.6128 0 0 1-17.5616-17.6128v-265.1136l-141.4656 81.92a17.5616 17.5616 0 1 1-17.5616-30.464l167.8336-96.9216a17.6128 17.6128 0 0 1 26.368 15.36v295.5776a17.6128 17.6128 0 0 1-17.6128 17.2544zM558.6432 823.6032H506.88a17.6128 17.6128 0 1 1 0-35.1232h51.7632a17.6128 17.6128 0 0 1 0 35.1744zM679.3728 823.6032h-51.7632a17.6128 17.6128 0 0 1 0-35.1744h51.7632a17.6128 17.6128 0 1 1 0 35.1744z" fill="#4D4D4D" p-id="1364"></path><path d="M800.1024 823.6032h-51.7632a17.6128 17.6128 0 0 1 0-35.1744h51.7632a17.6128 17.6128 0 1 1 0 35.1744zM296.5504 291.84a17.5616 17.5616 0 0 1-16.7424-12.3392 95.232 95.232 0 0 1 154.4192-99.84 17.6128 17.6128 0 0 1-23.5008 26.2144 60.1088 60.1088 0 0 0-97.28 62.8224 17.6128 17.6128 0 0 1-16.896 23.1424z" fill="#4D4D4D" p-id="1365"></path><path d="M500.224 282.2144a17.5616 17.5616 0 0 1-5.12-34.4064 60.0576 60.0576 0 1 0-76.8-69.4784 17.6128 17.6128 0 1 1-34.304-7.0656A95.232 95.232 0 1 1 505.3952 281.6a16.2304 16.2304 0 0 1-5.1712 0.6144z" fill="#4D4D4D" p-id="1366"></path></svg>