<?xml version="1.0" standalone="no"?><!DOCTYPE svg PUBLIC "-//W3C//DTD SVG 1.1//EN" "http://www.w3.org/Graphics/SVG/1.1/DTD/svg11.dtd"><svg t="1656289500147" class="icon" viewBox="0 0 1024 1024" version="1.1" xmlns="http://www.w3.org/2000/svg" p-id="983" xmlns:xlink="http://www.w3.org/1999/xlink" width="200" height="200"><defs><style type="text/css"></style></defs><path d="M102.4 102.4m307.2 0l204.8 0q307.2 0 307.2 307.2l0 204.8q0 307.2-307.2 307.2l-204.8 0q-307.2 0-307.2-307.2l0-204.8q0-307.2 307.2-307.2Z" fill="#50CC79" p-id="984"></path><path d="M504.32 271.36a46.08 46.08 0 0 1 46.08 46.08v56.32H614.4c84.83328 0 153.6 68.76672 153.6 153.6v38.4c0 106.0352-85.9648 192-192 192h-102.4c-49.03936 0-92.71296-22.98368-120.832-58.76224a41.00608 41.00608 0 0 1-9.728 1.16224h-46.08a40.96 40.96 0 0 1-40.96-40.96v-186.88a40.96 40.96 0 0 1 40.96-40.96h46.08a41.0624 41.0624 0 0 1 9.728 1.16224 153.90208 153.90208 0 0 1 69.632-50.0224V302.08a30.72 30.72 0 0 1 30.72-30.72h51.2z" fill="#FFFFFF" fill-opacity=".8" p-id="985"></path></svg>