<?xml version="1.0" standalone="no"?><!DOCTYPE svg PUBLIC "-//W3C//DTD SVG 1.1//EN" "http://www.w3.org/Graphics/SVG/1.1/DTD/svg11.dtd"><svg t="1657850807940" class="icon" viewBox="0 0 1024 1024" version="1.1" xmlns="http://www.w3.org/2000/svg" p-id="2418" xmlns:xlink="http://www.w3.org/1999/xlink" width="200" height="200"><defs><style type="text/css"></style></defs><path d="M292.571429 219.428571l438.857143 0 0 73.142857-438.857143 0 0-73.142857Z" p-id="2419"></path><path d="M292.571429 365.714286l438.857143 0 0 73.142857-438.857143 0 0-73.142857Z" p-id="2420"></path><path d="M292.571429 512l438.857143 0 0 73.142857-438.857143 0 0-73.142857Z" p-id="2421"></path><path d="M877.714286 36.571429 146.285714 36.571429c-20.214857 0-36.571429 16.374857-36.571429 36.571429l0 877.714286c0 20.214857 16.356571 36.571429 36.571429 36.571429l475.428571 0 292.571429-256L914.285714 73.142857C914.285714 52.946286 897.929143 36.571429 877.714286 36.571429zM182.857143 109.714286l658.285714 0 0 548.571429L621.714286 658.285714c-20.214857 0-36.571429 16.356571-36.571429 36.571429l0 219.428571L182.857143 914.285714 182.857143 109.714286zM803.214629 731.428571 658.285714 858.2144 658.285714 731.428571 803.214629 731.428571z" p-id="2422"></path></svg>