<?xml version="1.0" standalone="no"?><!DOCTYPE svg PUBLIC "-//W3C//DTD SVG 1.1//EN" "http://www.w3.org/Graphics/SVG/1.1/DTD/svg11.dtd"><svg t="1656293516334" class="icon" viewBox="0 0 1024 1024" version="1.1" xmlns="http://www.w3.org/2000/svg" p-id="20659" xmlns:xlink="http://www.w3.org/1999/xlink" width="200" height="200"><defs><style type="text/css"></style></defs><path d="M679.5 253c0-39.6-32.2-71.7-71.7-71.7H415.2c-39.6 0-71.7 32.2-71.7 71.7v27.1H162.6v352.1l34.7 6.1v193.3h628.3V638.4l34.7-6.1V280.2H679.5V253z m-279.7 0c0-8.5 6.9-15.4 15.4-15.4h192.6c8.5 0 15.4 6.9 15.4 15.4v27.1H399.8V253z m369.5 522.4H253.7v-127l175.6 31v18.4c0 32.6 26.6 59.2 59.2 59.2h46c32.6 0 59.2-26.6 59.2-59.2v-18.4l175.6-31v127z m-232-119.7v42.1c0 1.6-1.3 2.9-2.9 2.9h-46c-1.6 0-2.9-1.3-2.9-2.9V592c0-1.6 1.3-2.9 2.9-2.9h46c1.6 0 2.9 1.3 2.9 2.9v63.7zM804 585l-210.3 37.1V592c0-32.6-26.6-59.2-59.2-59.2h-46c-32.6 0-59.2 26.6-59.2 59.2v30.1L219 585V336.5h585V585z" p-id="20660"></path></svg>