<?xml version="1.0" standalone="no"?><!DOCTYPE svg PUBLIC "-//W3C//DTD SVG 1.1//EN" "http://www.w3.org/Graphics/SVG/1.1/DTD/svg11.dtd"><svg t="1656292575490" class="icon" viewBox="0 0 1024 1024" version="1.1" xmlns="http://www.w3.org/2000/svg" p-id="18793" xmlns:xlink="http://www.w3.org/1999/xlink" width="200" height="200"><defs><style type="text/css"></style></defs><path d="M944.213333 938.666667H79.786667c-20.48 0-37.12-17.493333-37.12-38.826667s16.64-38.826667 37.12-38.826667h864.426666c20.48 0 37.12 17.493333 37.12 38.826667s-16.64 38.826667-37.12 38.826667z m-87.466666-93.866667c-19.626667 0-35.84-15.786667-37.12-36.266667l-32.853334-523.093333h-116.48c-20.48 0-37.12-17.493333-37.12-38.826667s16.64-38.826667 37.12-38.826666h151.04c19.626667 0 35.84 15.786667 37.12 36.266666l35.413334 559.36c1.28 21.333333-14.08 39.68-34.56 41.386667h-2.56z m-234.666667 0c-19.626667 0-35.84-15.786667-37.12-36.266667l-40.533333-645.546666H245.333333l-40.96 645.546666c-0.853333 10.666667-5.546667 20.48-13.226666 27.306667a35.84 35.84 0 0 1-26.453334 8.96c-20.48-1.28-35.84-20.053333-34.56-41.386667L173.226667 121.6c1.28-20.48 17.493333-36.266667 37.12-36.266667h368.64c19.626667 0 35.84 15.786667 37.12 36.266667l43.093333 681.813333c1.28 21.333333-14.08 39.68-34.56 41.386667h-2.56z m-145.493333-187.733333H312.746667c-20.48 0-37.12-17.493333-37.12-38.826667s16.64-38.826667 37.12-38.826667h163.84c20.48 0 37.12 17.493333 37.12 38.826667 0.426667 21.333333-16.64 38.826667-37.12 38.826667zM469.333333 524.8H320c-20.48 0-37.12-17.493333-37.12-38.826667s16.64-38.826667 37.12-38.826666H469.333333c20.48 0 37.12 17.493333 37.12 38.826666 0.426667 21.333333-16.213333 38.826667-37.12 38.826667z m-6.826666-132.266667H327.253333c-20.48 0-37.12-17.493333-37.12-38.826666s16.64-38.826667 37.12-38.826667h135.253334c20.48 0 37.12 17.493333 37.12 38.826667s-16.64 38.826667-37.12 38.826666z" p-id="18794"></path></svg>