<?xml version="1.0" standalone="no"?><!DOCTYPE svg PUBLIC "-//W3C//DTD SVG 1.1//EN" "http://www.w3.org/Graphics/SVG/1.1/DTD/svg11.dtd"><svg t="1658283969769" class="icon" viewBox="0 0 1024 1024" version="1.1" xmlns="http://www.w3.org/2000/svg" p-id="3262" xmlns:xlink="http://www.w3.org/1999/xlink" width="200" height="200"><defs><style type="text/css"></style></defs><path d="M768 256a256 256 0 0 0-512 0 254.08 254.08 0 0 0 66.368 170.56A447.488 447.488 0 0 0 64 832a64 64 0 1 0 128 0 320 320 0 0 1 320-320 256 256 0 0 0 256-256zM512 384a128 128 0 1 1 0-256 128 128 0 0 1 0 256z m192 512h256v-128h-256v128zM576 576v128h384V576H576z" p-id="3263"></path></svg>