<?xml version="1.0" standalone="no"?><!DOCTYPE svg PUBLIC "-//W3C//DTD SVG 1.1//EN" "http://www.w3.org/Graphics/SVG/1.1/DTD/svg11.dtd"><svg t="1656292337509" class="icon" viewBox="0 0 1024 1024" version="1.1" xmlns="http://www.w3.org/2000/svg" p-id="18645" xmlns:xlink="http://www.w3.org/1999/xlink" width="200" height="200"><defs><style type="text/css"></style></defs><path d="M767 128h96c17.6 0 32-14.4 32-32s-14.4-32-32-32h-96c-17.6 0-32 14.4-32 32s14.4 32 32 32zM923.703 486.157L736 400.102V160l-0.098-0.049c0.003-8.206-3.109-16.412-9.334-22.637l-63.882-63.882c-12.445-12.445-32.81-12.445-45.255 0-6.22 6.22-9.331 14.418-9.334 22.617L608 96v245.418L155.493 133.96c-31.869-14.948-70.173-1.103-85.12 30.765a63.413 63.413 0 0 0-6.015 27.415L64 192v640c0 70.4 57.6 128 128 128h640c70.4 0 128-57.6 128-128V552.063c3.296-26.744-10.662-53.882-36.297-65.906zM224 832c0 17.6-14.4 32-32 32s-32-14.4-32-32V608c0-17.6 14.4-32 32-32s32 14.4 32 32v224z m128 0c0 17.6-14.4 32-32 32s-32-14.4-32-32V608c0-17.6 14.4-32 32-32s32 14.4 32 32v224z m128 0c0 17.6-14.4 32-32 32s-32-14.4-32-32V608c0-17.6 14.4-32 32-32s32 14.4 32 32v224z" p-id="18646"></path></svg>