<?xml version="1.0" standalone="no"?><!DOCTYPE svg PUBLIC "-//W3C//DTD SVG 1.1//EN" "http://www.w3.org/Graphics/SVG/1.1/DTD/svg11.dtd"><svg t="1656289554092" class="icon" viewBox="0 0 1024 1024" version="1.1" xmlns="http://www.w3.org/2000/svg" p-id="1565" xmlns:xlink="http://www.w3.org/1999/xlink" width="200" height="200"><defs><style type="text/css"></style></defs><path d="M102.4 102.4m307.2 0l204.8 0q307.2 0 307.2 307.2l0 204.8q0 307.2-307.2 307.2l-204.8 0q-307.2 0-307.2-307.2l0-204.8q0-307.2 307.2-307.2Z" fill="#64CBFF" p-id="1566"></path><path d="M686.08 332.8c45.24544 0 81.92 36.67456 81.92 81.92v194.56c0 45.24544-36.67456 81.92-81.92 81.92H337.92c-45.24544 0-81.92-36.67456-81.92-81.92V414.72c0-45.24544 36.67456-81.92 81.92-81.92h348.16z m36.40832 61.44c-5.34016 0-9.67168 4.23424-9.67168 9.45152 0 50.4832-88.064 94.52544-198.25664 94.52544-2.60608 0-5.1968-0.0256-7.77728-0.0768L504.32 496.64l-2.26304 1.3824c-104.27392-3.1744-185.7536-45.7728-185.7536-94.33088 0-5.2224-4.33152-9.45152-9.6768-9.45152-5.33504 0-9.66656 4.23424-9.66656 9.45152 0 56.87296 76.61056 101.80096 176.87552 111.488l-167.08096 101.57056-0.66048 0.44032a9.84064 9.84064 0 0 0-2.64192 12.9536l0.4352 0.6656a9.55392 9.55392 0 0 0 12.77952 2.67776L504.32 519.39328l187.65312 114.09408 0.69632 0.384c4.44928 2.23232 9.91744 0.66048 12.5184-3.73248a9.8304 9.8304 0 0 0-3.3024-13.3888L537.0368 516.53632C646.10304 510.8224 732.16 463.96928 732.16 403.69152c0-5.2224-4.33152-9.45152-9.67168-9.45152z" fill="#FFFFFF" fill-opacity=".8" p-id="1567"></path></svg>