<?xml version="1.0" standalone="no"?><!DOCTYPE svg PUBLIC "-//W3C//DTD SVG 1.1//EN" "http://www.w3.org/Graphics/SVG/1.1/DTD/svg11.dtd"><svg t="1656244144882" class="icon" viewBox="0 0 1024 1024" version="1.1" xmlns="http://www.w3.org/2000/svg" p-id="4312" xmlns:xlink="http://www.w3.org/1999/xlink" width="200" height="200"><defs><style type="text/css"></style></defs><path d="M673 74c0 29.271-23.729 53-53 53L409 127c-29.271 0-53-23.729-53-53L356 53c0-29.271 23.729-53 53-53l211 0c29.271 0 53 23.729 53 53L673 74z" p-id="4313"></path><path d="M908.737 1021 121.412 1021c-45.912 0-83.263-37.352-83.263-83.264L38.149 125.263C38.148 79.352 75.5 42 121.412 42L259 42c17.673 0 32 14.327 32 32s-14.327 32-32 32L121.412 106c-10.622 0-19.263 8.642-19.263 19.263l0 812.473c0 10.622 8.642 19.264 19.263 19.264l787.326 0c10.621 0 19.263-8.642 19.263-19.264L928.001 125.263c0-10.622-8.642-19.263-19.263-19.263L768 106c-17.673 0-32-14.327-32-32s14.327-32 32-32l140.737 0C954.648 42 992 79.352 992 125.263l0 812.473C992 983.648 954.648 1021 908.737 1021z" p-id="4314"></path><path d="M764 351 263 351c-17.673 0-32-14.327-32-32s14.327-32 32-32l501 0c17.673 0 32 14.327 32 32S781.673 351 764 351z" p-id="4315"></path><path d="M764 544 263 544c-17.673 0-32-14.327-32-32 0-17.673 14.327-32 32-32l501 0c17.673 0 32 14.327 32 32C796 529.673 781.673 544 764 544z" p-id="4316"></path><path d="M764 737 263 737c-17.673 0-32-14.327-32-32s14.327-32 32-32l501 0c17.673 0 32 14.327 32 32S781.673 737 764 737z" p-id="4317"></path></svg>