<?xml version="1.0" standalone="no"?><!DOCTYPE svg PUBLIC "-//W3C//DTD SVG 1.1//EN" "http://www.w3.org/Graphics/SVG/1.1/DTD/svg11.dtd"><svg t="1656249647563" class="icon" viewBox="0 0 1024 1024" version="1.1" xmlns="http://www.w3.org/2000/svg" p-id="7599" xmlns:xlink="http://www.w3.org/1999/xlink" width="200" height="200"><defs><style type="text/css"></style></defs><path d="M426.542817 0.599756h170.530695C710.527404-1.899228 833.477436 32.886635 911.045912 112.954095c80.167419 77.568476 114.853323 200.518508 112.454298 313.972399v170.530696c2.399025 113.453892-32.286878 236.403924-112.454298 313.972399-77.568476 80.167419-200.518508 114.853323-313.9724 112.454298H426.542817c-113.453892 2.399025-236.403924-32.286878-313.9724-112.454298C32.402998 833.961073-2.282906 711.011041 0.116119 597.557149V427.026454C-2.282906 313.472603 32.402998 190.52257 112.570417 112.954095 190.138893 32.886635 313.088925-1.899228 426.542817 0.599756z" fill="#FF2A8E" p-id="7600"></path><path d="M112.570417 112.954095C36.90117 186.224317 1.715469 299.878128 0.116119 407.834254c137.943939 0 249.79848-111.954501 249.798481-249.89844 0-42.782613-10.795613-83.066241-29.687935-118.251942-40.583507 17.892728-77.568476 42.182857-107.656248 73.270223z" fill="#FFFFFF" opacity=".5" p-id="7601"></path><path d="M511.808165 494.798911c-76.069085 0-137.644061-61.674935-137.644061-137.644061S435.739079 219.41083 511.808165 219.41083s137.644061 61.674935 137.64406 137.644061S587.87725 494.798911 511.808165 494.798911z m-32.386838-145.440892c0-8.496547-6.897197-15.293785-15.293785-15.293785s-15.293785 6.897197-15.293784 15.293785v15.293784c0 8.496547 6.897197 15.293785 15.293784 15.293785s15.293785-6.897197 15.293785-15.293785v-15.293784z m66.373025 0.099959c0-8.496547-6.897197-15.293785-15.293784-15.293784s-15.293785 6.897197-15.293785 15.293784v15.293785c0 8.496547 6.897197 15.293785 15.293785 15.293784s15.293785-6.897197 15.293784-15.293784v-15.293785z" fill="#FFFFFF" p-id="7602"></path><path d="M629.760228 805.072813H393.856101c-60.075585 0-108.755801-48.680216-108.755801-108.755801 0-112.654217 91.36287-204.017086 204.017086-204.017086h45.581476c112.654217 0 204.017086 91.36287 204.017086 204.017086-0.099959 60.075585-48.880135 108.755801-108.95572 108.755801z m-172.329964-143.941501h-15.693622v-15.493703c0-8.596506-6.997156-15.593663-15.593663-15.593663s-15.593663 6.997156-15.593662 15.593663v15.493703H394.855695c-8.596506 0-15.593663 6.997156-15.593663 15.593663s6.997156 15.593663 15.593663 15.593662h15.593662v15.693622c0 8.596506 6.997156 15.593663 15.593663 15.593663s15.593663-6.997156 15.593663-15.593663v-15.693622h15.693622c8.596506 0 15.593663-6.997156 15.593662-15.593662 0.099959-8.596506-6.897197-15.593663-15.493703-15.593663z" fill="#FFFFFF" p-id="7603"></path><path d="M738.615988 696.317012c0-64.873635-30.287691-122.750114-77.568475-160.13492C680.73951 620.447846 696.633051 628.744474 685.137722 677.724568c-7.596913 32.486797-58.076397 52.578632-24.290128 122.850073 44.981719-13.394556 77.768394-54.977657 77.768394-104.257629z" fill="#FF2A8E" opacity=".5" p-id="7604"></path><path d="M623.662706 394.139819c0 18.592444-2.798863 36.585132-8.096709 53.478266 21.191388-24.190169 33.986188-55.877291 33.986188-90.563194 0-76.069085-61.674935-137.644061-137.644061-137.644061-6.697278 0-13.294597 0.499797-19.691997 1.399431 75.769207 21.091428 131.446579 90.763113 131.446579 173.329558z" fill="#FF2A8E" opacity=".5" p-id="7605"></path></svg>