<?xml version="1.0" standalone="no"?><!DOCTYPE svg PUBLIC "-//W3C//DTD SVG 1.1//EN" "http://www.w3.org/Graphics/SVG/1.1/DTD/svg11.dtd"><svg t="1656293607019" class="icon" viewBox="0 0 1024 1024" version="1.1" xmlns="http://www.w3.org/2000/svg" p-id="22268" xmlns:xlink="http://www.w3.org/1999/xlink" width="200" height="200"><defs><style type="text/css"></style></defs><path d="M832 362.666667c-8.533333 0-14.933333-4.266667-19.2-12.8C750.933333 226.133333 627.2 149.333333 488.533333 149.333333c-136.533333 0-260.266667 76.8-320 200.533334-4.266667 10.666667-17.066667 14.933333-27.733333 10.666666-10.666667-4.266667-14.933333-17.066667-10.666667-27.733333C198.4 192 337.066667 106.666667 488.533333 106.666667c153.6 0 292.266667 85.333333 362.666667 226.133333 4.266667 10.666667 0 23.466667-10.666667 27.733333-2.133333 2.133333-6.4 2.133333-8.533333 2.133334z" p-id="22269"></path><path d="M277.333333 362.666667H149.333333c-12.8 0-21.333333-8.533333-21.333333-21.333334s8.533333-21.333333 21.333333-21.333333h128c12.8 0 21.333333 8.533333 21.333334 21.333333s-8.533333 21.333333-21.333334 21.333334zM492.8 917.333333c-153.6 0-292.266667-85.333333-362.666667-226.133333-4.266667-10.666667 0-23.466667 10.666667-27.733333 10.666667-4.266667 23.466667 0 27.733333 10.666666 61.866667 123.733333 185.6 200.533333 324.266667 200.533334 136.533333 0 260.266667-76.8 320-200.533334 4.266667-10.666667 17.066667-14.933333 27.733333-10.666666 10.666667 4.266667 14.933333 17.066667 10.666667 27.733333C782.933333 832 644.266667 917.333333 492.8 917.333333z" p-id="22270"></path><path d="M832 704h-128c-12.8 0-21.333333-8.533333-21.333333-21.333333s8.533333-21.333333 21.333333-21.333334h128c12.8 0 21.333333 8.533333 21.333333 21.333334s-8.533333 21.333333-21.333333 21.333333zM456.533333 554.666667c2.133333 0 4.266667 0 4.266667-2.133334l19.2-29.866666c2.133333-2.133333 2.133333-4.266667 0-6.4-19.2-21.333333-36.266667-38.4-53.333333-53.333334v-8.533333h40.533333c2.133333 0 6.4-2.133333 6.4-6.4v-32c0-2.133333-2.133333-6.4-6.4-6.4H426.666667v-61.866667c0-2.133333-2.133333-6.4-6.4-6.4h-34.133334c-2.133333 0-6.4 2.133333-6.4 6.4v61.866667h-49.066666c-2.133333 0-6.4 2.133333-6.4 6.4V448c0 2.133333 2.133333 6.4 6.4 6.4h44.8c-12.8 38.4-32 72.533333-57.6 102.4-2.133333 2.133333-2.133333 4.266667 0 6.4l14.933333 38.4c0 2.133333 2.133333 4.266667 4.266667 4.266667s4.266667 0 4.266666-2.133334c14.933333-21.333333 25.6-42.666667 36.266667-68.266666v145.066666c0 2.133333 2.133333 6.4 6.4 6.4h34.133333c2.133333 0 6.4-2.133333 6.4-6.4v-160c6.4 10.666667 14.933333 21.333333 23.466667 34.133334 6.4-2.133333 6.4 0 8.533333 0z" p-id="22271"></path><path d="M654.933333 409.6h-32v-61.866667c0-2.133333-2.133333-6.4-6.4-6.4h-34.133333c-2.133333 0-6.4 2.133333-6.4 6.4v61.866667h-76.8c-2.133333 0-6.4 2.133333-6.4 6.4V448c0 2.133333 2.133333 6.4 6.4 6.4h61.866667c-23.466667 57.6-61.866667 106.666667-113.066667 145.066667-2.133333 2.133333-2.133333 4.266667-2.133333 6.4l19.2 29.866666c0 2.133333 2.133333 2.133333 4.266666 2.133334s4.266667 0 4.266667-2.133334c42.666667-36.266667 76.8-81.066667 102.4-130.133333v125.866667c0 8.533333-2.133333 8.533333-6.4 8.533333-10.666667 0-21.333333 0-36.266667-2.133333-2.133333 0-4.266667 0-4.266666 2.133333-2.133333 2.133333-2.133333 4.266667-2.133334 4.266667l6.4 29.866666c0 2.133333 2.133333 4.266667 6.4 4.266667h40.533334c19.2 0 42.666667-10.666667 42.666666-44.8v-183.466667h32c2.133333 0 6.4-2.133333 6.4-6.4v-32s-2.133333-2.133333-6.4-2.133333z" p-id="22272"></path></svg>