<?xml version="1.0" standalone="no"?><!DOCTYPE svg PUBLIC "-//W3C//DTD SVG 1.1//EN" "http://www.w3.org/Graphics/SVG/1.1/DTD/svg11.dtd"><svg t="1656289518362" class="icon" viewBox="0 0 1024 1024" version="1.1" xmlns="http://www.w3.org/2000/svg" p-id="1129" xmlns:xlink="http://www.w3.org/1999/xlink" width="200" height="200"><defs><style type="text/css"></style></defs><path d="M102.4 102.4m307.2 0l204.8 0q307.2 0 307.2 307.2l0 204.8q0 307.2-307.2 307.2l-204.8 0q-307.2 0-307.2-307.2l0-204.8q0-307.2 307.2-307.2Z" fill="#FFB3B3" p-id="1130"></path><path d="M716.80512 370.22208L716.8 706.56c0 33.93024-27.50976 61.44-61.44 61.44H368.64c-33.93024 0-61.44-27.50976-61.44-61.44V370.2272C342.81984 421.57568 421.12512 457.216 512 457.216c90.88 0 169.1904-35.65056 204.80512-86.99392zM463.7696 487.2192h-40.5504l59.904 107.8272h-40.5504v19.0464h51.3024l0.3072 0.3072v26.4192H442.5728v19.0464h51.6096V706.56h35.6352v-46.6944h51.9168v-19.0464H529.8176V614.4l0.3072-0.3072h51.6096v-19.0464h-40.8576l59.904-107.8272h-40.5504L512 581.5296l-48.2304-94.3104zM655.36 256c32.4096 0 58.96192 25.09824 61.27616 56.91904C712.448 379.7248 623.70816 436.736 512 436.736c-111.70816 0-200.448-57.0112-204.6464-123.81696C309.67808 281.09824 336.2304 256 368.64 256h286.72z" fill="#FFFFFF" fill-opacity=".8" p-id="1131"></path></svg>