<?xml version="1.0" standalone="no"?><!DOCTYPE svg PUBLIC "-//W3C//DTD SVG 1.1//EN" "http://www.w3.org/Graphics/SVG/1.1/DTD/svg11.dtd"><svg t="1656289549995" class="icon" viewBox="0 0 1024 1024" version="1.1" xmlns="http://www.w3.org/2000/svg" p-id="1419" xmlns:xlink="http://www.w3.org/1999/xlink" width="200" height="200"><defs><style type="text/css"></style></defs><path d="M102.4 102.4m307.2 0l204.8 0q307.2 0 307.2 307.2l0 204.8q0 307.2-307.2 307.2l-204.8 0q-307.2 0-307.2-307.2l0-204.8q0-307.2 307.2-307.2Z" fill="#9864FF" p-id="1420"></path><path d="M309.24288 614.4l0.00512 100.352H409.6v27.648H309.248a27.648 27.648 0 0 1-27.648-27.648V614.4h27.64288zM742.4 614.4v100.352a27.648 27.648 0 0 1-27.648 27.648H614.4v-27.648h100.352V614.4h27.648z m-15.36-117.76a15.36 15.36 0 0 1 0 30.72H296.96a15.36 15.36 0 0 1 0-30.72h430.08z m-12.288-215.04a27.648 27.648 0 0 1 27.648 27.648V409.6h-27.648V309.248l-100.352-0.00512V281.6h100.352zM409.6 281.6v27.64288l-100.352 0.00512-0.00512 100.352H281.6V309.248a27.648 27.648 0 0 1 27.648-27.648H409.6z" fill="#FFFFFF" fill-opacity=".8" p-id="1421"></path></svg>