<?xml version="1.0" standalone="no"?><!DOCTYPE svg PUBLIC "-//W3C//DTD SVG 1.1//EN" "http://www.w3.org/Graphics/SVG/1.1/DTD/svg11.dtd"><svg t="1656289531574" class="icon" viewBox="0 0 1024 1024" version="1.1" xmlns="http://www.w3.org/2000/svg" p-id="1275" xmlns:xlink="http://www.w3.org/1999/xlink" width="200" height="200"><defs><style type="text/css"></style></defs><path d="M102.4 102.4m307.2 0l204.8 0q307.2 0 307.2 307.2l0 204.8q0 307.2-307.2 307.2l-204.8 0q-307.2 0-307.2-307.2l0-204.8q0-307.2 307.2-307.2Z" fill="#6464FF" p-id="1276"></path><path d="M512 256c141.38368 0 256 114.61632 256 256s-114.61632 256-256 256-256-114.61632-256-256 114.61632-256 256-256z m56.32 122.88a30.72 30.72 0 0 0-29.17888 40.35584L426.23488 506.6496A30.72 30.72 0 1 0 409.6 563.2h0.00512l1.152-0.02048a30.66368 30.66368 0 0 0 22.75328-11.40736L552.96 593.93024l0.02048 1.14176A30.72 30.72 0 1 0 583.68 563.2l-1.152 0.02048a30.66368 30.66368 0 0 0-22.75328 11.40736L440.32 532.46464a30.6688 30.6688 0 0 0-1.54112-9.62048l112.90624-87.41376A30.72 30.72 0 1 0 568.32 378.88z" fill="#FFFFFF" fill-opacity=".8" p-id="1277"></path></svg>