<?xml version="1.0" standalone="no"?><!DOCTYPE svg PUBLIC "-//W3C//DTD SVG 1.1//EN" "http://www.w3.org/Graphics/SVG/1.1/DTD/svg11.dtd"><svg t="1656293465198" class="icon" viewBox="0 0 1024 1024" version="1.1" xmlns="http://www.w3.org/2000/svg" p-id="19687" xmlns:xlink="http://www.w3.org/1999/xlink" width="200" height="200"><defs><style type="text/css"></style></defs><path d="M506.588245 127.312594c92.12621 0 168.899758 76.772524 168.899758 168.895665 0 92.12621-76.772524 168.898735-168.899758 168.898735-92.113931 0-168.887478-76.772524-168.887478-168.898735C337.700767 204.086142 414.474314 127.312594 506.588245 127.312594L506.588245 127.312594 506.588245 127.312594zM808.555671 836.146565c-189.366905 74.214259-386.404514 79.331813-598.807065 0-2.558265-174.013219 81.890079-281.495162 189.368952-322.428434l110.029976 181.680852 115.15981-176.565345C726.667639 562.331315 808.555671 667.2509 808.555671 836.146565L808.555671 836.146565zM808.555671 836.146565" p-id="19688"></path></svg>