<?xml version="1.0" standalone="no"?><!DOCTYPE svg PUBLIC "-//W3C//DTD SVG 1.1//EN" "http://www.w3.org/Graphics/SVG/1.1/DTD/svg11.dtd"><svg t="1656144937563" class="icon" viewBox="0 0 1024 1024" version="1.1" xmlns="http://www.w3.org/2000/svg" p-id="4165" xmlns:xlink="http://www.w3.org/1999/xlink" width="200" height="200"><defs><style type="text/css"></style></defs><path d="M795.077 144.008C806.597 127.1 826.003 116 848 116c35.346 0 64 28.662 64 64.018s-28.654 64.018-64 64.018c-21.997 0-41.403-11.1-52.923-28.008H347c-63.513 0-115 51.502-115 115.033 0 63.53 51.487 115.032 115 115.032h330c103.277 0 187 83.747 187 187.053s-83.723 187.053-187 187.053H326a8 8 0 0 1-8-8v-56.02a8 8 0 0 1 8-8h351c63.513 0 115-51.502 115-115.033 0-63.53-51.487-115.033-115-115.033H347c-103.277 0-187-83.746-187-187.052 0-103.307 83.723-187.053 187-187.053h448.077zM275.734 790.534L124.87 906.344A8 8 0 0 1 112 900V668.378a8 8 0 0 1 12.871-6.346l150.863 115.81a8 8 0 0 1 0 12.692z" fill="#5090F1" p-id="4166"></path></svg>